<svg width="68" height="67" viewBox="0 0 68 67" fill="none" xmlns="http://www.w3.org/2000/svg">
<path d="M43.0668 22.9289L28.7668 37.2622L23.2668 31.7622C22.9679 31.4133 22.6002 31.1299 22.1867 30.9298C21.7731 30.7297 21.3227 30.6173 20.8636 30.5996C20.4045 30.5818 19.9468 30.6592 19.519 30.8268C19.0913 30.9944 18.7028 31.2486 18.3779 31.5734C18.0531 31.8983 17.7989 32.2867 17.6313 32.7145C17.4637 33.1422 17.3864 33.6 17.4041 34.0591C17.4218 34.5181 17.5343 34.9686 17.7343 35.3821C17.9344 35.7957 18.2178 36.1634 18.5668 36.4622L26.4001 44.3289C26.7116 44.6378 27.0809 44.8823 27.4871 45.0481C27.8932 45.214 28.3281 45.2981 28.7668 45.2956C29.6412 45.2919 30.4792 44.9447 31.1001 44.3289L47.7668 27.6622C48.0792 27.3524 48.3272 26.9837 48.4964 26.5775C48.6656 26.1713 48.7528 25.7356 48.7528 25.2956C48.7528 24.8555 48.6656 24.4198 48.4964 24.0137C48.3272 23.6075 48.0792 23.2388 47.7668 22.9289C47.1422 22.3081 46.2974 21.9596 45.4168 21.9596C44.5361 21.9596 43.6913 22.3081 43.0668 22.9289ZM34.0001 0.295572C27.4074 0.295572 20.9627 2.25054 15.4811 5.91325C9.99945 9.57597 5.72703 14.7819 3.20411 20.8728C0.681191 26.9637 0.0210797 33.6659 1.30725 40.1319C2.59343 46.598 5.76812 52.5374 10.4299 57.1991C15.0916 61.8609 21.0311 65.0356 27.4971 66.3218C33.9631 67.6079 40.6653 66.9478 46.7562 64.4249C52.8471 61.902 58.053 57.6296 61.7157 52.1479C65.3785 46.6663 67.3334 40.2216 67.3334 33.6289C67.3334 29.2515 66.4712 24.917 64.7961 20.8728C63.1209 16.8286 60.6656 13.154 57.5703 10.0587C54.475 6.96339 50.8004 4.50808 46.7562 2.83292C42.712 1.15776 38.3775 0.295572 34.0001 0.295572ZM34.0001 60.2956C28.7259 60.2956 23.5702 58.7316 19.1849 55.8014C14.7996 52.8713 11.3816 48.7065 9.36331 43.8338C7.34497 38.9611 6.81688 33.5993 7.84582 28.4265C8.87476 23.2537 11.4145 18.5021 15.1439 14.7727C18.8733 11.0433 23.6249 8.50357 28.7977 7.47463C33.9705 6.44569 39.3323 6.97378 44.205 8.99212C49.0777 11.0105 53.2424 14.4284 56.1726 18.8137C59.1028 23.199 60.6668 28.3547 60.6668 33.6289C60.6668 40.7013 57.8572 47.4841 52.8563 52.4851C47.8553 57.4861 41.0725 60.2956 34.0001 60.2956Z" fill="#65D598"/>
</svg>
